<?xml version="1.0" standalone="no"?>
<!DOCTYPE svg PUBLIC "-//W3C//DTD SVG 20010904//EN"
 "http://www.w3.org/TR/2001/REC-SVG-20010904/DTD/svg10.dtd">
<svg version="1.0" xmlns="http://www.w3.org/2000/svg"
 width="1024.000000pt" height="1024.000000pt" viewBox="0 0 1024.000000 1024.000000"
 preserveAspectRatio="xMidYMid meet">

<g transform="translate(0.000000,1024.000000) scale(0.100000,-0.100000)"
fill="#000000" stroke="none">
<path d="M4815 8299 c-406 -42 -874 -184 -1224 -370 -835 -445 -1449 -1230
-1661 -2124 -99 -414 -106 -954 -19 -1390 99 -499 331 -994 655 -1400 116
-145 382 -410 514 -511 393 -304 820 -513 1272 -623 874 -213 1765 -65 2528
421 577 368 1042 935 1286 1568 57 146 125 380 158 540 75 362 86 774 30 1150
-99 677 -451 1343 -973 1842 -142 135 -220 200 -377 310 -461 325 -966 518
-1524 582 -146 17 -522 20 -665 5z m595 -444 c364 -42 737 -157 1030 -317 108
-58 342 -215 435 -290 555 -450 924 -1092 1031 -1793 29 -187 26 -590 -4 -785
-60 -377 -167 -693 -339 -998 -233 -413 -545 -746 -948 -1012 -94 -61 -253
-150 -270 -150 -3 0 -5 400 -5 889 l0 889 45 22 c55 27 101 78 115 129 7 27 9
490 8 1473 -3 1373 -4 1434 -21 1463 -11 17 -34 41 -52 54 -95 65 -189 27
-365 -148 -344 -342 -556 -801 -636 -1381 -25 -177 -25 -582 -1 -737 47 -300
130 -515 252 -651 l45 -50 0 -1085 0 -1086 -52 -10 c-236 -48 -600 -64 -833
-37 -77 9 -179 24 -227 33 l-88 16 0 1441 0 1441 48 17 c122 44 275 152 352
249 80 102 139 221 177 359 16 59 18 119 18 665 l0 600 -26 55 c-30 63 -99
136 -146 156 -79 34 -188 1 -224 -66 -18 -32 -19 -67 -19 -525 -1 -269 -5
-510 -9 -535 -13 -63 -65 -110 -123 -110 -49 0 -99 26 -125 67 -17 25 -18 68
-23 548 -5 469 -7 523 -22 552 -64 116 -265 118 -332 3 -20 -34 -21 -53 -26
-555 -4 -465 -7 -523 -22 -551 -33 -60 -124 -82 -185 -44 -66 40 -64 27 -66
599 -2 496 -3 517 -22 550 -45 77 -135 102 -219 62 -51 -25 -115 -90 -148
-153 l-23 -43 -3 -595 c-2 -502 0 -607 13 -671 33 -163 111 -305 240 -435 76
-76 106 -98 192 -142 56 -29 108 -52 117 -52 15 0 16 -124 16 -1345 l0 -1345
-26 10 c-43 17 -231 128 -341 201 -715 480 -1167 1239 -1254 2103 -15 153 -6
535 15 676 95 607 379 1148 838 1596 174 170 342 295 573 429 327 189 733 314
1165 358 96 10 388 5 500 -8z"/>
</g>
</svg>
